G04 #@! TF.GenerationSoftware,KiCad,Pcbnew,5.1.2-f72e74a~84~ubuntu16.04.1*
G04 #@! TF.CreationDate,2019-07-15T19:55:09-04:00*
G04 #@! TF.ProjectId,usb-webcam-interface,7573622d-7765-4626-9361-6d2d696e7465,rev?*
G04 #@! TF.SameCoordinates,Original*
G04 #@! TF.FileFunction,Soldermask,Top*
G04 #@! TF.FilePolarity,Negative*
%FSLAX46Y46*%
G04 Gerber Fmt 4.6, Leading zero omitted, Abs format (unit mm)*
G04 Created by KiCad (PCBNEW 5.1.2-f72e74a~84~ubuntu16.04.1) date 2019-07-15 19:55:09*
%MOMM*%
%LPD*%
G04 APERTURE LIST*
%ADD10C,0.100000*%
G04 APERTURE END LIST*
D10*
G36*
X78546162Y-79864368D02*
G01*
X78855724Y-79992593D01*
X78855725Y-79992594D01*
X79134324Y-80178747D01*
X79371253Y-80415676D01*
X79495637Y-80601830D01*
X79557407Y-80694276D01*
X79685632Y-81003838D01*
X79751000Y-81332465D01*
X79751000Y-81667535D01*
X79685632Y-81996162D01*
X79557407Y-82305724D01*
X79557406Y-82305725D01*
X79371253Y-82584324D01*
X79134324Y-82821253D01*
X78948170Y-82945637D01*
X78855724Y-83007407D01*
X78546162Y-83135632D01*
X78217535Y-83201000D01*
X77882465Y-83201000D01*
X77553838Y-83135632D01*
X77244276Y-83007407D01*
X77151830Y-82945637D01*
X76965676Y-82821253D01*
X76728747Y-82584324D01*
X76542594Y-82305725D01*
X76542593Y-82305724D01*
X76414368Y-81996162D01*
X76349000Y-81667535D01*
X76349000Y-81332465D01*
X76414368Y-81003838D01*
X76542593Y-80694276D01*
X76604363Y-80601830D01*
X76728747Y-80415676D01*
X76965676Y-80178747D01*
X77244275Y-79992594D01*
X77244276Y-79992593D01*
X77553838Y-79864368D01*
X77882465Y-79799000D01*
X78217535Y-79799000D01*
X78546162Y-79864368D01*
X78546162Y-79864368D01*
G37*
G36*
X98286162Y-79864368D02*
G01*
X98595724Y-79992593D01*
X98595725Y-79992594D01*
X98874324Y-80178747D01*
X99111253Y-80415676D01*
X99235637Y-80601830D01*
X99297407Y-80694276D01*
X99425632Y-81003838D01*
X99491000Y-81332465D01*
X99491000Y-81667535D01*
X99425632Y-81996162D01*
X99297407Y-82305724D01*
X99297406Y-82305725D01*
X99111253Y-82584324D01*
X98874324Y-82821253D01*
X98688170Y-82945637D01*
X98595724Y-83007407D01*
X98286162Y-83135632D01*
X97957535Y-83201000D01*
X97622465Y-83201000D01*
X97293838Y-83135632D01*
X96984276Y-83007407D01*
X96891830Y-82945637D01*
X96705676Y-82821253D01*
X96468747Y-82584324D01*
X96282594Y-82305725D01*
X96282593Y-82305724D01*
X96154368Y-81996162D01*
X96089000Y-81667535D01*
X96089000Y-81332465D01*
X96154368Y-81003838D01*
X96282593Y-80694276D01*
X96344363Y-80601830D01*
X96468747Y-80415676D01*
X96705676Y-80178747D01*
X96984275Y-79992594D01*
X96984276Y-79992593D01*
X97293838Y-79864368D01*
X97622465Y-79799000D01*
X97957535Y-79799000D01*
X98286162Y-79864368D01*
X98286162Y-79864368D01*
G37*
G36*
X95275285Y-75218234D02*
G01*
X95371981Y-75237468D01*
X95554151Y-75312926D01*
X95718100Y-75422473D01*
X95857527Y-75561900D01*
X95967074Y-75725849D01*
X96042532Y-75908019D01*
X96081000Y-76101410D01*
X96081000Y-76298590D01*
X96042532Y-76491981D01*
X95967074Y-76674151D01*
X95857527Y-76838100D01*
X95718100Y-76977527D01*
X95554151Y-77087074D01*
X95371981Y-77162532D01*
X95237640Y-77189254D01*
X95221810Y-77192403D01*
X95198361Y-77199516D01*
X95176750Y-77211067D01*
X95157808Y-77226612D01*
X95142263Y-77245554D01*
X95130712Y-77267165D01*
X95123599Y-77290614D01*
X95121197Y-77315000D01*
X95123599Y-77339386D01*
X95130712Y-77362835D01*
X95142263Y-77384446D01*
X95157808Y-77403388D01*
X95176750Y-77418933D01*
X95198361Y-77430484D01*
X95221810Y-77437597D01*
X95371981Y-77467468D01*
X95554151Y-77542926D01*
X95718100Y-77652473D01*
X95857527Y-77791900D01*
X95967074Y-77955849D01*
X96042532Y-78138019D01*
X96081000Y-78331410D01*
X96081000Y-78528590D01*
X96042532Y-78721981D01*
X95967074Y-78904151D01*
X95857527Y-79068100D01*
X95718100Y-79207527D01*
X95554151Y-79317074D01*
X95371981Y-79392532D01*
X95275285Y-79411766D01*
X95178591Y-79431000D01*
X94981409Y-79431000D01*
X94884715Y-79411766D01*
X94788019Y-79392532D01*
X94605849Y-79317074D01*
X94441900Y-79207527D01*
X94302473Y-79068100D01*
X94192926Y-78904151D01*
X94117468Y-78721981D01*
X94079000Y-78528590D01*
X94079000Y-78331410D01*
X94117468Y-78138019D01*
X94192926Y-77955849D01*
X94302473Y-77791900D01*
X94441900Y-77652473D01*
X94605849Y-77542926D01*
X94788019Y-77467468D01*
X94938190Y-77437597D01*
X94961639Y-77430484D01*
X94983250Y-77418933D01*
X95002192Y-77403388D01*
X95017737Y-77384446D01*
X95029288Y-77362835D01*
X95036401Y-77339386D01*
X95038803Y-77315000D01*
X95036401Y-77290614D01*
X95029288Y-77267165D01*
X95017737Y-77245554D01*
X95002192Y-77226612D01*
X94983250Y-77211067D01*
X94961639Y-77199516D01*
X94938190Y-77192403D01*
X94922360Y-77189254D01*
X94788019Y-77162532D01*
X94605849Y-77087074D01*
X94441900Y-76977527D01*
X94302473Y-76838100D01*
X94192926Y-76674151D01*
X94117468Y-76491981D01*
X94079000Y-76298590D01*
X94079000Y-76101410D01*
X94117468Y-75908019D01*
X94192926Y-75725849D01*
X94302473Y-75561900D01*
X94441900Y-75422473D01*
X94605849Y-75312926D01*
X94788019Y-75237468D01*
X94884715Y-75218234D01*
X94981409Y-75199000D01*
X95178591Y-75199000D01*
X95275285Y-75218234D01*
X95275285Y-75218234D01*
G37*
G36*
X80955285Y-75218234D02*
G01*
X81051981Y-75237468D01*
X81234151Y-75312926D01*
X81398100Y-75422473D01*
X81537527Y-75561900D01*
X81647074Y-75725849D01*
X81722532Y-75908019D01*
X81761000Y-76101410D01*
X81761000Y-76298590D01*
X81722532Y-76491981D01*
X81647074Y-76674151D01*
X81537527Y-76838100D01*
X81398100Y-76977527D01*
X81234151Y-77087074D01*
X81051981Y-77162532D01*
X80917640Y-77189254D01*
X80901810Y-77192403D01*
X80878361Y-77199516D01*
X80856750Y-77211067D01*
X80837808Y-77226612D01*
X80822263Y-77245554D01*
X80810712Y-77267165D01*
X80803599Y-77290614D01*
X80801197Y-77315000D01*
X80803599Y-77339386D01*
X80810712Y-77362835D01*
X80822263Y-77384446D01*
X80837808Y-77403388D01*
X80856750Y-77418933D01*
X80878361Y-77430484D01*
X80901810Y-77437597D01*
X81051981Y-77467468D01*
X81234151Y-77542926D01*
X81398100Y-77652473D01*
X81537527Y-77791900D01*
X81647074Y-77955849D01*
X81722532Y-78138019D01*
X81761000Y-78331410D01*
X81761000Y-78528590D01*
X81722532Y-78721981D01*
X81647074Y-78904151D01*
X81537527Y-79068100D01*
X81398100Y-79207527D01*
X81234151Y-79317074D01*
X81051981Y-79392532D01*
X80955285Y-79411766D01*
X80858591Y-79431000D01*
X80661409Y-79431000D01*
X80564715Y-79411766D01*
X80468019Y-79392532D01*
X80285849Y-79317074D01*
X80121900Y-79207527D01*
X79982473Y-79068100D01*
X79872926Y-78904151D01*
X79797468Y-78721981D01*
X79759000Y-78528590D01*
X79759000Y-78331410D01*
X79797468Y-78138019D01*
X79872926Y-77955849D01*
X79982473Y-77791900D01*
X80121900Y-77652473D01*
X80285849Y-77542926D01*
X80468019Y-77467468D01*
X80618190Y-77437597D01*
X80641639Y-77430484D01*
X80663250Y-77418933D01*
X80682192Y-77403388D01*
X80697737Y-77384446D01*
X80709288Y-77362835D01*
X80716401Y-77339386D01*
X80718803Y-77315000D01*
X80716401Y-77290614D01*
X80709288Y-77267165D01*
X80697737Y-77245554D01*
X80682192Y-77226612D01*
X80663250Y-77211067D01*
X80641639Y-77199516D01*
X80618190Y-77192403D01*
X80602360Y-77189254D01*
X80468019Y-77162532D01*
X80285849Y-77087074D01*
X80121900Y-76977527D01*
X79982473Y-76838100D01*
X79872926Y-76674151D01*
X79797468Y-76491981D01*
X79759000Y-76298590D01*
X79759000Y-76101410D01*
X79797468Y-75908019D01*
X79872926Y-75725849D01*
X79982473Y-75561900D01*
X80121900Y-75422473D01*
X80285849Y-75312926D01*
X80468019Y-75237468D01*
X80564715Y-75218234D01*
X80661409Y-75199000D01*
X80858591Y-75199000D01*
X80955285Y-75218234D01*
X80955285Y-75218234D01*
G37*
G36*
X81051981Y-72967468D02*
G01*
X81234151Y-73042926D01*
X81398100Y-73152473D01*
X81537527Y-73291900D01*
X81647074Y-73455849D01*
X81722532Y-73638019D01*
X81761000Y-73831410D01*
X81761000Y-74028590D01*
X81722532Y-74221981D01*
X81647074Y-74404151D01*
X81537527Y-74568100D01*
X81398100Y-74707527D01*
X81234151Y-74817074D01*
X81051981Y-74892532D01*
X80955285Y-74911766D01*
X80858591Y-74931000D01*
X80661409Y-74931000D01*
X80564715Y-74911766D01*
X80468019Y-74892532D01*
X80285849Y-74817074D01*
X80121900Y-74707527D01*
X79982473Y-74568100D01*
X79872926Y-74404151D01*
X79797468Y-74221981D01*
X79759000Y-74028590D01*
X79759000Y-73831410D01*
X79797468Y-73638019D01*
X79872926Y-73455849D01*
X79982473Y-73291900D01*
X80121900Y-73152473D01*
X80285849Y-73042926D01*
X80468019Y-72967468D01*
X80661409Y-72929000D01*
X80858591Y-72929000D01*
X81051981Y-72967468D01*
X81051981Y-72967468D01*
G37*
G36*
X95275285Y-70448234D02*
G01*
X95371981Y-70467468D01*
X95554151Y-70542926D01*
X95718100Y-70652473D01*
X95857527Y-70791900D01*
X95967074Y-70955849D01*
X96042532Y-71138019D01*
X96081000Y-71331410D01*
X96081000Y-71528590D01*
X96042532Y-71721981D01*
X95967074Y-71904151D01*
X95857527Y-72068100D01*
X95718100Y-72207527D01*
X95554151Y-72317074D01*
X95371981Y-72392532D01*
X95237640Y-72419254D01*
X95221810Y-72422403D01*
X95198361Y-72429516D01*
X95176750Y-72441067D01*
X95157808Y-72456612D01*
X95142263Y-72475554D01*
X95130712Y-72497165D01*
X95123599Y-72520614D01*
X95121197Y-72545000D01*
X95123599Y-72569386D01*
X95130712Y-72592835D01*
X95142263Y-72614446D01*
X95157808Y-72633388D01*
X95176750Y-72648933D01*
X95198361Y-72660484D01*
X95221810Y-72667597D01*
X95371981Y-72697468D01*
X95554151Y-72772926D01*
X95718100Y-72882473D01*
X95857527Y-73021900D01*
X95967074Y-73185849D01*
X96042532Y-73368019D01*
X96081000Y-73561410D01*
X96081000Y-73758590D01*
X96042532Y-73951981D01*
X95967074Y-74134151D01*
X95857527Y-74298100D01*
X95718100Y-74437527D01*
X95554151Y-74547074D01*
X95371981Y-74622532D01*
X95275285Y-74641766D01*
X95178591Y-74661000D01*
X94981409Y-74661000D01*
X94884715Y-74641766D01*
X94788019Y-74622532D01*
X94605849Y-74547074D01*
X94441900Y-74437527D01*
X94302473Y-74298100D01*
X94192926Y-74134151D01*
X94117468Y-73951981D01*
X94079000Y-73758590D01*
X94079000Y-73561410D01*
X94117468Y-73368019D01*
X94192926Y-73185849D01*
X94302473Y-73021900D01*
X94441900Y-72882473D01*
X94605849Y-72772926D01*
X94788019Y-72697468D01*
X94938190Y-72667597D01*
X94961639Y-72660484D01*
X94983250Y-72648933D01*
X95002192Y-72633388D01*
X95017737Y-72614446D01*
X95029288Y-72592835D01*
X95036401Y-72569386D01*
X95038803Y-72545000D01*
X95036401Y-72520614D01*
X95029288Y-72497165D01*
X95017737Y-72475554D01*
X95002192Y-72456612D01*
X94983250Y-72441067D01*
X94961639Y-72429516D01*
X94938190Y-72422403D01*
X94922360Y-72419254D01*
X94788019Y-72392532D01*
X94605849Y-72317074D01*
X94441900Y-72207527D01*
X94302473Y-72068100D01*
X94192926Y-71904151D01*
X94117468Y-71721981D01*
X94079000Y-71528590D01*
X94079000Y-71331410D01*
X94117468Y-71138019D01*
X94192926Y-70955849D01*
X94302473Y-70791900D01*
X94441900Y-70652473D01*
X94605849Y-70542926D01*
X94788019Y-70467468D01*
X94884715Y-70448234D01*
X94981409Y-70429000D01*
X95178591Y-70429000D01*
X95275285Y-70448234D01*
X95275285Y-70448234D01*
G37*
G36*
X80955285Y-70448234D02*
G01*
X81051981Y-70467468D01*
X81234151Y-70542926D01*
X81398100Y-70652473D01*
X81537527Y-70791900D01*
X81647074Y-70955849D01*
X81722532Y-71138019D01*
X81761000Y-71331410D01*
X81761000Y-71528590D01*
X81722532Y-71721981D01*
X81647074Y-71904151D01*
X81537527Y-72068100D01*
X81398100Y-72207527D01*
X81234151Y-72317074D01*
X81051981Y-72392532D01*
X80858591Y-72431000D01*
X80661409Y-72431000D01*
X80468019Y-72392532D01*
X80285849Y-72317074D01*
X80121900Y-72207527D01*
X79982473Y-72068100D01*
X79872926Y-71904151D01*
X79797468Y-71721981D01*
X79759000Y-71528590D01*
X79759000Y-71331410D01*
X79797468Y-71138019D01*
X79872926Y-70955849D01*
X79982473Y-70791900D01*
X80121900Y-70652473D01*
X80285849Y-70542926D01*
X80468019Y-70467468D01*
X80564715Y-70448234D01*
X80661409Y-70429000D01*
X80858591Y-70429000D01*
X80955285Y-70448234D01*
X80955285Y-70448234D01*
G37*
G36*
X78546162Y-66724368D02*
G01*
X78855724Y-66852593D01*
X78855725Y-66852594D01*
X79134324Y-67038747D01*
X79371253Y-67275676D01*
X79495637Y-67461830D01*
X79557407Y-67554276D01*
X79685632Y-67863838D01*
X79751000Y-68192465D01*
X79751000Y-68527535D01*
X79685632Y-68856162D01*
X79557407Y-69165724D01*
X79557406Y-69165725D01*
X79371253Y-69444324D01*
X79134324Y-69681253D01*
X78948170Y-69805637D01*
X78855724Y-69867407D01*
X78546162Y-69995632D01*
X78217535Y-70061000D01*
X77882465Y-70061000D01*
X77553838Y-69995632D01*
X77244276Y-69867407D01*
X77151830Y-69805637D01*
X76965676Y-69681253D01*
X76728747Y-69444324D01*
X76542594Y-69165725D01*
X76542593Y-69165724D01*
X76414368Y-68856162D01*
X76349000Y-68527535D01*
X76349000Y-68192465D01*
X76414368Y-67863838D01*
X76542593Y-67554276D01*
X76604363Y-67461830D01*
X76728747Y-67275676D01*
X76965676Y-67038747D01*
X77244275Y-66852594D01*
X77244276Y-66852593D01*
X77553838Y-66724368D01*
X77882465Y-66659000D01*
X78217535Y-66659000D01*
X78546162Y-66724368D01*
X78546162Y-66724368D01*
G37*
G36*
X98286162Y-66724368D02*
G01*
X98595724Y-66852593D01*
X98595725Y-66852594D01*
X98874324Y-67038747D01*
X99111253Y-67275676D01*
X99235637Y-67461830D01*
X99297407Y-67554276D01*
X99425632Y-67863838D01*
X99491000Y-68192465D01*
X99491000Y-68527535D01*
X99425632Y-68856162D01*
X99297407Y-69165724D01*
X99297406Y-69165725D01*
X99111253Y-69444324D01*
X98874324Y-69681253D01*
X98688170Y-69805637D01*
X98595724Y-69867407D01*
X98286162Y-69995632D01*
X97957535Y-70061000D01*
X97622465Y-70061000D01*
X97293838Y-69995632D01*
X96984276Y-69867407D01*
X96891830Y-69805637D01*
X96705676Y-69681253D01*
X96468747Y-69444324D01*
X96282594Y-69165725D01*
X96282593Y-69165724D01*
X96154368Y-68856162D01*
X96089000Y-68527535D01*
X96089000Y-68192465D01*
X96154368Y-67863838D01*
X96282593Y-67554276D01*
X96344363Y-67461830D01*
X96468747Y-67275676D01*
X96705676Y-67038747D01*
X96984275Y-66852594D01*
X96984276Y-66852593D01*
X97293838Y-66724368D01*
X97622465Y-66659000D01*
X97957535Y-66659000D01*
X98286162Y-66724368D01*
X98286162Y-66724368D01*
G37*
G36*
X89137142Y-65278242D02*
G01*
X89285101Y-65339529D01*
X89418255Y-65428499D01*
X89531501Y-65541745D01*
X89620471Y-65674899D01*
X89681758Y-65822858D01*
X89713000Y-65979925D01*
X89713000Y-66140075D01*
X89681758Y-66297142D01*
X89620471Y-66445101D01*
X89531501Y-66578255D01*
X89418255Y-66691501D01*
X89285101Y-66780471D01*
X89137142Y-66841758D01*
X88980075Y-66873000D01*
X88819925Y-66873000D01*
X88662858Y-66841758D01*
X88514899Y-66780471D01*
X88381745Y-66691501D01*
X88268499Y-66578255D01*
X88179529Y-66445101D01*
X88118242Y-66297142D01*
X88087000Y-66140075D01*
X88087000Y-65979925D01*
X88118242Y-65822858D01*
X88179529Y-65674899D01*
X88268499Y-65541745D01*
X88381745Y-65428499D01*
X88514899Y-65339529D01*
X88662858Y-65278242D01*
X88819925Y-65247000D01*
X88980075Y-65247000D01*
X89137142Y-65278242D01*
X89137142Y-65278242D01*
G37*
G36*
X86597142Y-65258242D02*
G01*
X86745101Y-65319529D01*
X86878255Y-65408499D01*
X86991501Y-65521745D01*
X87080471Y-65654899D01*
X87141758Y-65802858D01*
X87173000Y-65959925D01*
X87173000Y-66120075D01*
X87141758Y-66277142D01*
X87080471Y-66425101D01*
X86991501Y-66558255D01*
X86878255Y-66671501D01*
X86745101Y-66760471D01*
X86597142Y-66821758D01*
X86440075Y-66853000D01*
X86279925Y-66853000D01*
X86122858Y-66821758D01*
X85974899Y-66760471D01*
X85841745Y-66671501D01*
X85728499Y-66558255D01*
X85639529Y-66425101D01*
X85578242Y-66277142D01*
X85547000Y-66120075D01*
X85547000Y-65959925D01*
X85578242Y-65802858D01*
X85639529Y-65654899D01*
X85728499Y-65521745D01*
X85841745Y-65408499D01*
X85974899Y-65319529D01*
X86122858Y-65258242D01*
X86279925Y-65227000D01*
X86440075Y-65227000D01*
X86597142Y-65258242D01*
X86597142Y-65258242D01*
G37*
M02*
