G04 #@! TF.GenerationSoftware,KiCad,Pcbnew,5.1.2-f72e74a~84~ubuntu16.04.1*
G04 #@! TF.CreationDate,2019-07-14T00:58:29-04:00*
G04 #@! TF.ProjectId,usb-webcam-interface,7573622d-7765-4626-9361-6d2d696e7465,rev?*
G04 #@! TF.SameCoordinates,Original*
G04 #@! TF.FileFunction,Copper,L2,Bot*
G04 #@! TF.FilePolarity,Positive*
%FSLAX46Y46*%
G04 Gerber Fmt 4.6, Leading zero omitted, Abs format (unit mm)*
G04 Created by KiCad (PCBNEW 5.1.2-f72e74a~84~ubuntu16.04.1) date 2019-07-14 00:58:29*
%MOMM*%
%LPD*%
G04 APERTURE LIST*
%ADD10C,1.900000*%
%ADD11C,3.300000*%
%ADD12C,1.524000*%
%ADD13C,0.254000*%
G04 APERTURE END LIST*
D10*
X80760000Y-78430000D03*
X80760000Y-76200000D03*
X80760000Y-73930000D03*
X80760000Y-71430000D03*
D11*
X78050000Y-81500000D03*
X78050000Y-68360000D03*
D10*
X95080000Y-71430000D03*
X95080000Y-73660000D03*
X95080000Y-76200000D03*
X95080000Y-78430000D03*
D11*
X97790000Y-68360000D03*
X97790000Y-81500000D03*
D12*
X88900000Y-66060000D03*
X86360000Y-66040000D03*
D13*
G36*
X111633000Y-84963000D02*
G01*
X64897000Y-84963000D01*
X64897000Y-81274947D01*
X75765000Y-81274947D01*
X75765000Y-81725053D01*
X75852811Y-82166510D01*
X76025059Y-82582353D01*
X76275125Y-82956603D01*
X76593397Y-83274875D01*
X76967647Y-83524941D01*
X77383490Y-83697189D01*
X77824947Y-83785000D01*
X78275053Y-83785000D01*
X78716510Y-83697189D01*
X79132353Y-83524941D01*
X79506603Y-83274875D01*
X79824875Y-82956603D01*
X80074941Y-82582353D01*
X80247189Y-82166510D01*
X80335000Y-81725053D01*
X80335000Y-81274947D01*
X95505000Y-81274947D01*
X95505000Y-81725053D01*
X95592811Y-82166510D01*
X95765059Y-82582353D01*
X96015125Y-82956603D01*
X96333397Y-83274875D01*
X96707647Y-83524941D01*
X97123490Y-83697189D01*
X97564947Y-83785000D01*
X98015053Y-83785000D01*
X98456510Y-83697189D01*
X98872353Y-83524941D01*
X99246603Y-83274875D01*
X99564875Y-82956603D01*
X99814941Y-82582353D01*
X99987189Y-82166510D01*
X100075000Y-81725053D01*
X100075000Y-81274947D01*
X99987189Y-80833490D01*
X99814941Y-80417647D01*
X99564875Y-80043397D01*
X99246603Y-79725125D01*
X98872353Y-79475059D01*
X98456510Y-79302811D01*
X98015053Y-79215000D01*
X97564947Y-79215000D01*
X97123490Y-79302811D01*
X96707647Y-79475059D01*
X96333397Y-79725125D01*
X96015125Y-80043397D01*
X95765059Y-80417647D01*
X95592811Y-80833490D01*
X95505000Y-81274947D01*
X80335000Y-81274947D01*
X80247189Y-80833490D01*
X80074941Y-80417647D01*
X79824875Y-80043397D01*
X79506603Y-79725125D01*
X79214207Y-79529752D01*
X79839853Y-79529752D01*
X79929579Y-79789042D01*
X80210671Y-79924935D01*
X80512873Y-80003379D01*
X80824573Y-80021359D01*
X81133791Y-79978184D01*
X81428644Y-79875513D01*
X81590421Y-79789042D01*
X81680147Y-79529752D01*
X80760000Y-78609605D01*
X79839853Y-79529752D01*
X79214207Y-79529752D01*
X79132353Y-79475059D01*
X78716510Y-79302811D01*
X78275053Y-79215000D01*
X77824947Y-79215000D01*
X77383490Y-79302811D01*
X76967647Y-79475059D01*
X76593397Y-79725125D01*
X76275125Y-80043397D01*
X76025059Y-80417647D01*
X75852811Y-80833490D01*
X75765000Y-81274947D01*
X64897000Y-81274947D01*
X64897000Y-78494573D01*
X79168641Y-78494573D01*
X79211816Y-78803791D01*
X79314487Y-79098644D01*
X79400958Y-79260421D01*
X79660248Y-79350147D01*
X80580395Y-78430000D01*
X80566253Y-78415858D01*
X80745858Y-78236253D01*
X80760000Y-78250395D01*
X80774143Y-78236253D01*
X80953748Y-78415858D01*
X80939605Y-78430000D01*
X81859752Y-79350147D01*
X82119042Y-79260421D01*
X82254935Y-78979329D01*
X82333379Y-78677127D01*
X82351359Y-78365427D01*
X82308184Y-78056209D01*
X82205513Y-77761356D01*
X82119042Y-77599579D01*
X81859754Y-77509854D01*
X81975557Y-77394051D01*
X81891518Y-77310012D01*
X81991150Y-77210379D01*
X82164609Y-76950779D01*
X82284089Y-76662327D01*
X82345000Y-76356109D01*
X82345000Y-76043891D01*
X82284089Y-75737673D01*
X82164609Y-75449221D01*
X81991150Y-75189621D01*
X81866529Y-75065000D01*
X81991150Y-74940379D01*
X82164609Y-74680779D01*
X82284089Y-74392327D01*
X82345000Y-74086109D01*
X82345000Y-73773891D01*
X82284089Y-73467673D01*
X82164609Y-73179221D01*
X81991150Y-72919621D01*
X81770379Y-72698850D01*
X81742168Y-72680000D01*
X81770379Y-72661150D01*
X81991150Y-72440379D01*
X82164609Y-72180779D01*
X82284089Y-71892327D01*
X82345000Y-71586109D01*
X82345000Y-71494573D01*
X93488641Y-71494573D01*
X93531816Y-71803791D01*
X93634487Y-72098644D01*
X93720958Y-72260421D01*
X93980246Y-72350146D01*
X93864443Y-72465949D01*
X93948483Y-72549989D01*
X93848850Y-72649621D01*
X93675391Y-72909221D01*
X93555911Y-73197673D01*
X93495000Y-73503891D01*
X93495000Y-73816109D01*
X93555911Y-74122327D01*
X93675391Y-74410779D01*
X93848850Y-74670379D01*
X94069621Y-74891150D01*
X94127764Y-74930000D01*
X94069621Y-74968850D01*
X93848850Y-75189621D01*
X93675391Y-75449221D01*
X93555911Y-75737673D01*
X93495000Y-76043891D01*
X93495000Y-76356109D01*
X93555911Y-76662327D01*
X93675391Y-76950779D01*
X93848850Y-77210379D01*
X93953471Y-77315000D01*
X93848850Y-77419621D01*
X93675391Y-77679221D01*
X93555911Y-77967673D01*
X93495000Y-78273891D01*
X93495000Y-78586109D01*
X93555911Y-78892327D01*
X93675391Y-79180779D01*
X93848850Y-79440379D01*
X94069621Y-79661150D01*
X94329221Y-79834609D01*
X94617673Y-79954089D01*
X94923891Y-80015000D01*
X95236109Y-80015000D01*
X95542327Y-79954089D01*
X95830779Y-79834609D01*
X96090379Y-79661150D01*
X96311150Y-79440379D01*
X96484609Y-79180779D01*
X96604089Y-78892327D01*
X96665000Y-78586109D01*
X96665000Y-78273891D01*
X96604089Y-77967673D01*
X96484609Y-77679221D01*
X96311150Y-77419621D01*
X96206529Y-77315000D01*
X96311150Y-77210379D01*
X96484609Y-76950779D01*
X96604089Y-76662327D01*
X96665000Y-76356109D01*
X96665000Y-76043891D01*
X96604089Y-75737673D01*
X96484609Y-75449221D01*
X96311150Y-75189621D01*
X96090379Y-74968850D01*
X96032236Y-74930000D01*
X96090379Y-74891150D01*
X96311150Y-74670379D01*
X96484609Y-74410779D01*
X96604089Y-74122327D01*
X96665000Y-73816109D01*
X96665000Y-73503891D01*
X96604089Y-73197673D01*
X96484609Y-72909221D01*
X96311150Y-72649621D01*
X96211518Y-72549989D01*
X96295557Y-72465949D01*
X96179754Y-72350146D01*
X96439042Y-72260421D01*
X96574935Y-71979329D01*
X96653379Y-71677127D01*
X96671359Y-71365427D01*
X96628184Y-71056209D01*
X96525513Y-70761356D01*
X96439042Y-70599579D01*
X96179752Y-70509853D01*
X95259605Y-71430000D01*
X95273748Y-71444143D01*
X95094143Y-71623748D01*
X95080000Y-71609605D01*
X95065858Y-71623748D01*
X94886253Y-71444143D01*
X94900395Y-71430000D01*
X93980248Y-70509853D01*
X93720958Y-70599579D01*
X93585065Y-70880671D01*
X93506621Y-71182873D01*
X93488641Y-71494573D01*
X82345000Y-71494573D01*
X82345000Y-71273891D01*
X82284089Y-70967673D01*
X82164609Y-70679221D01*
X81991150Y-70419621D01*
X81901777Y-70330248D01*
X94159853Y-70330248D01*
X95080000Y-71250395D01*
X96000147Y-70330248D01*
X95910421Y-70070958D01*
X95629329Y-69935065D01*
X95327127Y-69856621D01*
X95015427Y-69838641D01*
X94706209Y-69881816D01*
X94411356Y-69984487D01*
X94249579Y-70070958D01*
X94159853Y-70330248D01*
X81901777Y-70330248D01*
X81770379Y-70198850D01*
X81510779Y-70025391D01*
X81222327Y-69905911D01*
X80916109Y-69845000D01*
X80603891Y-69845000D01*
X80297673Y-69905911D01*
X80009221Y-70025391D01*
X79749621Y-70198850D01*
X79528850Y-70419621D01*
X79355391Y-70679221D01*
X79235911Y-70967673D01*
X79175000Y-71273891D01*
X79175000Y-71586109D01*
X79235911Y-71892327D01*
X79355391Y-72180779D01*
X79528850Y-72440379D01*
X79749621Y-72661150D01*
X79777832Y-72680000D01*
X79749621Y-72698850D01*
X79528850Y-72919621D01*
X79355391Y-73179221D01*
X79235911Y-73467673D01*
X79175000Y-73773891D01*
X79175000Y-74086109D01*
X79235911Y-74392327D01*
X79355391Y-74680779D01*
X79528850Y-74940379D01*
X79653471Y-75065000D01*
X79528850Y-75189621D01*
X79355391Y-75449221D01*
X79235911Y-75737673D01*
X79175000Y-76043891D01*
X79175000Y-76356109D01*
X79235911Y-76662327D01*
X79355391Y-76950779D01*
X79528850Y-77210379D01*
X79628483Y-77310012D01*
X79544443Y-77394051D01*
X79660246Y-77509854D01*
X79400958Y-77599579D01*
X79265065Y-77880671D01*
X79186621Y-78182873D01*
X79168641Y-78494573D01*
X64897000Y-78494573D01*
X64897000Y-68134947D01*
X75765000Y-68134947D01*
X75765000Y-68585053D01*
X75852811Y-69026510D01*
X76025059Y-69442353D01*
X76275125Y-69816603D01*
X76593397Y-70134875D01*
X76967647Y-70384941D01*
X77383490Y-70557189D01*
X77824947Y-70645000D01*
X78275053Y-70645000D01*
X78716510Y-70557189D01*
X79132353Y-70384941D01*
X79506603Y-70134875D01*
X79824875Y-69816603D01*
X80074941Y-69442353D01*
X80247189Y-69026510D01*
X80335000Y-68585053D01*
X80335000Y-68134947D01*
X95505000Y-68134947D01*
X95505000Y-68585053D01*
X95592811Y-69026510D01*
X95765059Y-69442353D01*
X96015125Y-69816603D01*
X96333397Y-70134875D01*
X96707647Y-70384941D01*
X97123490Y-70557189D01*
X97564947Y-70645000D01*
X98015053Y-70645000D01*
X98456510Y-70557189D01*
X98872353Y-70384941D01*
X99246603Y-70134875D01*
X99564875Y-69816603D01*
X99814941Y-69442353D01*
X99987189Y-69026510D01*
X100075000Y-68585053D01*
X100075000Y-68134947D01*
X99987189Y-67693490D01*
X99814941Y-67277647D01*
X99564875Y-66903397D01*
X99246603Y-66585125D01*
X98872353Y-66335059D01*
X98456510Y-66162811D01*
X98015053Y-66075000D01*
X97564947Y-66075000D01*
X97123490Y-66162811D01*
X96707647Y-66335059D01*
X96333397Y-66585125D01*
X96015125Y-66903397D01*
X95765059Y-67277647D01*
X95592811Y-67693490D01*
X95505000Y-68134947D01*
X80335000Y-68134947D01*
X80247189Y-67693490D01*
X80074941Y-67277647D01*
X79824875Y-66903397D01*
X79506603Y-66585125D01*
X79132353Y-66335059D01*
X78716510Y-66162811D01*
X78275053Y-66075000D01*
X77824947Y-66075000D01*
X77383490Y-66162811D01*
X76967647Y-66335059D01*
X76593397Y-66585125D01*
X76275125Y-66903397D01*
X76025059Y-67277647D01*
X75852811Y-67693490D01*
X75765000Y-68134947D01*
X64897000Y-68134947D01*
X64897000Y-65902408D01*
X84963000Y-65902408D01*
X84963000Y-66177592D01*
X85016686Y-66447490D01*
X85121995Y-66701727D01*
X85274880Y-66930535D01*
X85469465Y-67125120D01*
X85698273Y-67278005D01*
X85952510Y-67383314D01*
X86222408Y-67437000D01*
X86497592Y-67437000D01*
X86767490Y-67383314D01*
X87021727Y-67278005D01*
X87250535Y-67125120D01*
X87350090Y-67025565D01*
X88114040Y-67025565D01*
X88181020Y-67265656D01*
X88430048Y-67382756D01*
X88697135Y-67449023D01*
X88972017Y-67461910D01*
X89244133Y-67420922D01*
X89503023Y-67327636D01*
X89618980Y-67265656D01*
X89685960Y-67025565D01*
X88900000Y-66239605D01*
X88114040Y-67025565D01*
X87350090Y-67025565D01*
X87445120Y-66930535D01*
X87598005Y-66701727D01*
X87623838Y-66639361D01*
X87632364Y-66663023D01*
X87694344Y-66778980D01*
X87934435Y-66845960D01*
X88720395Y-66060000D01*
X89079605Y-66060000D01*
X89865565Y-66845960D01*
X90105656Y-66778980D01*
X90222756Y-66529952D01*
X90289023Y-66262865D01*
X90301910Y-65987983D01*
X90260922Y-65715867D01*
X90167636Y-65456977D01*
X90105656Y-65341020D01*
X89865565Y-65274040D01*
X89079605Y-66060000D01*
X88720395Y-66060000D01*
X87934435Y-65274040D01*
X87694344Y-65341020D01*
X87634920Y-65467393D01*
X87598005Y-65378273D01*
X87445120Y-65149465D01*
X87390090Y-65094435D01*
X88114040Y-65094435D01*
X88900000Y-65880395D01*
X89685960Y-65094435D01*
X89618980Y-64854344D01*
X89369952Y-64737244D01*
X89102865Y-64670977D01*
X88827983Y-64658090D01*
X88555867Y-64699078D01*
X88296977Y-64792364D01*
X88181020Y-64854344D01*
X88114040Y-65094435D01*
X87390090Y-65094435D01*
X87250535Y-64954880D01*
X87021727Y-64801995D01*
X86767490Y-64696686D01*
X86497592Y-64643000D01*
X86222408Y-64643000D01*
X85952510Y-64696686D01*
X85698273Y-64801995D01*
X85469465Y-64954880D01*
X85274880Y-65149465D01*
X85121995Y-65378273D01*
X85016686Y-65632510D01*
X84963000Y-65902408D01*
X64897000Y-65902408D01*
X64897000Y-62357000D01*
X111633000Y-62357000D01*
X111633000Y-84963000D01*
X111633000Y-84963000D01*
G37*
X111633000Y-84963000D02*
X64897000Y-84963000D01*
X64897000Y-81274947D01*
X75765000Y-81274947D01*
X75765000Y-81725053D01*
X75852811Y-82166510D01*
X76025059Y-82582353D01*
X76275125Y-82956603D01*
X76593397Y-83274875D01*
X76967647Y-83524941D01*
X77383490Y-83697189D01*
X77824947Y-83785000D01*
X78275053Y-83785000D01*
X78716510Y-83697189D01*
X79132353Y-83524941D01*
X79506603Y-83274875D01*
X79824875Y-82956603D01*
X80074941Y-82582353D01*
X80247189Y-82166510D01*
X80335000Y-81725053D01*
X80335000Y-81274947D01*
X95505000Y-81274947D01*
X95505000Y-81725053D01*
X95592811Y-82166510D01*
X95765059Y-82582353D01*
X96015125Y-82956603D01*
X96333397Y-83274875D01*
X96707647Y-83524941D01*
X97123490Y-83697189D01*
X97564947Y-83785000D01*
X98015053Y-83785000D01*
X98456510Y-83697189D01*
X98872353Y-83524941D01*
X99246603Y-83274875D01*
X99564875Y-82956603D01*
X99814941Y-82582353D01*
X99987189Y-82166510D01*
X100075000Y-81725053D01*
X100075000Y-81274947D01*
X99987189Y-80833490D01*
X99814941Y-80417647D01*
X99564875Y-80043397D01*
X99246603Y-79725125D01*
X98872353Y-79475059D01*
X98456510Y-79302811D01*
X98015053Y-79215000D01*
X97564947Y-79215000D01*
X97123490Y-79302811D01*
X96707647Y-79475059D01*
X96333397Y-79725125D01*
X96015125Y-80043397D01*
X95765059Y-80417647D01*
X95592811Y-80833490D01*
X95505000Y-81274947D01*
X80335000Y-81274947D01*
X80247189Y-80833490D01*
X80074941Y-80417647D01*
X79824875Y-80043397D01*
X79506603Y-79725125D01*
X79214207Y-79529752D01*
X79839853Y-79529752D01*
X79929579Y-79789042D01*
X80210671Y-79924935D01*
X80512873Y-80003379D01*
X80824573Y-80021359D01*
X81133791Y-79978184D01*
X81428644Y-79875513D01*
X81590421Y-79789042D01*
X81680147Y-79529752D01*
X80760000Y-78609605D01*
X79839853Y-79529752D01*
X79214207Y-79529752D01*
X79132353Y-79475059D01*
X78716510Y-79302811D01*
X78275053Y-79215000D01*
X77824947Y-79215000D01*
X77383490Y-79302811D01*
X76967647Y-79475059D01*
X76593397Y-79725125D01*
X76275125Y-80043397D01*
X76025059Y-80417647D01*
X75852811Y-80833490D01*
X75765000Y-81274947D01*
X64897000Y-81274947D01*
X64897000Y-78494573D01*
X79168641Y-78494573D01*
X79211816Y-78803791D01*
X79314487Y-79098644D01*
X79400958Y-79260421D01*
X79660248Y-79350147D01*
X80580395Y-78430000D01*
X80566253Y-78415858D01*
X80745858Y-78236253D01*
X80760000Y-78250395D01*
X80774143Y-78236253D01*
X80953748Y-78415858D01*
X80939605Y-78430000D01*
X81859752Y-79350147D01*
X82119042Y-79260421D01*
X82254935Y-78979329D01*
X82333379Y-78677127D01*
X82351359Y-78365427D01*
X82308184Y-78056209D01*
X82205513Y-77761356D01*
X82119042Y-77599579D01*
X81859754Y-77509854D01*
X81975557Y-77394051D01*
X81891518Y-77310012D01*
X81991150Y-77210379D01*
X82164609Y-76950779D01*
X82284089Y-76662327D01*
X82345000Y-76356109D01*
X82345000Y-76043891D01*
X82284089Y-75737673D01*
X82164609Y-75449221D01*
X81991150Y-75189621D01*
X81866529Y-75065000D01*
X81991150Y-74940379D01*
X82164609Y-74680779D01*
X82284089Y-74392327D01*
X82345000Y-74086109D01*
X82345000Y-73773891D01*
X82284089Y-73467673D01*
X82164609Y-73179221D01*
X81991150Y-72919621D01*
X81770379Y-72698850D01*
X81742168Y-72680000D01*
X81770379Y-72661150D01*
X81991150Y-72440379D01*
X82164609Y-72180779D01*
X82284089Y-71892327D01*
X82345000Y-71586109D01*
X82345000Y-71494573D01*
X93488641Y-71494573D01*
X93531816Y-71803791D01*
X93634487Y-72098644D01*
X93720958Y-72260421D01*
X93980246Y-72350146D01*
X93864443Y-72465949D01*
X93948483Y-72549989D01*
X93848850Y-72649621D01*
X93675391Y-72909221D01*
X93555911Y-73197673D01*
X93495000Y-73503891D01*
X93495000Y-73816109D01*
X93555911Y-74122327D01*
X93675391Y-74410779D01*
X93848850Y-74670379D01*
X94069621Y-74891150D01*
X94127764Y-74930000D01*
X94069621Y-74968850D01*
X93848850Y-75189621D01*
X93675391Y-75449221D01*
X93555911Y-75737673D01*
X93495000Y-76043891D01*
X93495000Y-76356109D01*
X93555911Y-76662327D01*
X93675391Y-76950779D01*
X93848850Y-77210379D01*
X93953471Y-77315000D01*
X93848850Y-77419621D01*
X93675391Y-77679221D01*
X93555911Y-77967673D01*
X93495000Y-78273891D01*
X93495000Y-78586109D01*
X93555911Y-78892327D01*
X93675391Y-79180779D01*
X93848850Y-79440379D01*
X94069621Y-79661150D01*
X94329221Y-79834609D01*
X94617673Y-79954089D01*
X94923891Y-80015000D01*
X95236109Y-80015000D01*
X95542327Y-79954089D01*
X95830779Y-79834609D01*
X96090379Y-79661150D01*
X96311150Y-79440379D01*
X96484609Y-79180779D01*
X96604089Y-78892327D01*
X96665000Y-78586109D01*
X96665000Y-78273891D01*
X96604089Y-77967673D01*
X96484609Y-77679221D01*
X96311150Y-77419621D01*
X96206529Y-77315000D01*
X96311150Y-77210379D01*
X96484609Y-76950779D01*
X96604089Y-76662327D01*
X96665000Y-76356109D01*
X96665000Y-76043891D01*
X96604089Y-75737673D01*
X96484609Y-75449221D01*
X96311150Y-75189621D01*
X96090379Y-74968850D01*
X96032236Y-74930000D01*
X96090379Y-74891150D01*
X96311150Y-74670379D01*
X96484609Y-74410779D01*
X96604089Y-74122327D01*
X96665000Y-73816109D01*
X96665000Y-73503891D01*
X96604089Y-73197673D01*
X96484609Y-72909221D01*
X96311150Y-72649621D01*
X96211518Y-72549989D01*
X96295557Y-72465949D01*
X96179754Y-72350146D01*
X96439042Y-72260421D01*
X96574935Y-71979329D01*
X96653379Y-71677127D01*
X96671359Y-71365427D01*
X96628184Y-71056209D01*
X96525513Y-70761356D01*
X96439042Y-70599579D01*
X96179752Y-70509853D01*
X95259605Y-71430000D01*
X95273748Y-71444143D01*
X95094143Y-71623748D01*
X95080000Y-71609605D01*
X95065858Y-71623748D01*
X94886253Y-71444143D01*
X94900395Y-71430000D01*
X93980248Y-70509853D01*
X93720958Y-70599579D01*
X93585065Y-70880671D01*
X93506621Y-71182873D01*
X93488641Y-71494573D01*
X82345000Y-71494573D01*
X82345000Y-71273891D01*
X82284089Y-70967673D01*
X82164609Y-70679221D01*
X81991150Y-70419621D01*
X81901777Y-70330248D01*
X94159853Y-70330248D01*
X95080000Y-71250395D01*
X96000147Y-70330248D01*
X95910421Y-70070958D01*
X95629329Y-69935065D01*
X95327127Y-69856621D01*
X95015427Y-69838641D01*
X94706209Y-69881816D01*
X94411356Y-69984487D01*
X94249579Y-70070958D01*
X94159853Y-70330248D01*
X81901777Y-70330248D01*
X81770379Y-70198850D01*
X81510779Y-70025391D01*
X81222327Y-69905911D01*
X80916109Y-69845000D01*
X80603891Y-69845000D01*
X80297673Y-69905911D01*
X80009221Y-70025391D01*
X79749621Y-70198850D01*
X79528850Y-70419621D01*
X79355391Y-70679221D01*
X79235911Y-70967673D01*
X79175000Y-71273891D01*
X79175000Y-71586109D01*
X79235911Y-71892327D01*
X79355391Y-72180779D01*
X79528850Y-72440379D01*
X79749621Y-72661150D01*
X79777832Y-72680000D01*
X79749621Y-72698850D01*
X79528850Y-72919621D01*
X79355391Y-73179221D01*
X79235911Y-73467673D01*
X79175000Y-73773891D01*
X79175000Y-74086109D01*
X79235911Y-74392327D01*
X79355391Y-74680779D01*
X79528850Y-74940379D01*
X79653471Y-75065000D01*
X79528850Y-75189621D01*
X79355391Y-75449221D01*
X79235911Y-75737673D01*
X79175000Y-76043891D01*
X79175000Y-76356109D01*
X79235911Y-76662327D01*
X79355391Y-76950779D01*
X79528850Y-77210379D01*
X79628483Y-77310012D01*
X79544443Y-77394051D01*
X79660246Y-77509854D01*
X79400958Y-77599579D01*
X79265065Y-77880671D01*
X79186621Y-78182873D01*
X79168641Y-78494573D01*
X64897000Y-78494573D01*
X64897000Y-68134947D01*
X75765000Y-68134947D01*
X75765000Y-68585053D01*
X75852811Y-69026510D01*
X76025059Y-69442353D01*
X76275125Y-69816603D01*
X76593397Y-70134875D01*
X76967647Y-70384941D01*
X77383490Y-70557189D01*
X77824947Y-70645000D01*
X78275053Y-70645000D01*
X78716510Y-70557189D01*
X79132353Y-70384941D01*
X79506603Y-70134875D01*
X79824875Y-69816603D01*
X80074941Y-69442353D01*
X80247189Y-69026510D01*
X80335000Y-68585053D01*
X80335000Y-68134947D01*
X95505000Y-68134947D01*
X95505000Y-68585053D01*
X95592811Y-69026510D01*
X95765059Y-69442353D01*
X96015125Y-69816603D01*
X96333397Y-70134875D01*
X96707647Y-70384941D01*
X97123490Y-70557189D01*
X97564947Y-70645000D01*
X98015053Y-70645000D01*
X98456510Y-70557189D01*
X98872353Y-70384941D01*
X99246603Y-70134875D01*
X99564875Y-69816603D01*
X99814941Y-69442353D01*
X99987189Y-69026510D01*
X100075000Y-68585053D01*
X100075000Y-68134947D01*
X99987189Y-67693490D01*
X99814941Y-67277647D01*
X99564875Y-66903397D01*
X99246603Y-66585125D01*
X98872353Y-66335059D01*
X98456510Y-66162811D01*
X98015053Y-66075000D01*
X97564947Y-66075000D01*
X97123490Y-66162811D01*
X96707647Y-66335059D01*
X96333397Y-66585125D01*
X96015125Y-66903397D01*
X95765059Y-67277647D01*
X95592811Y-67693490D01*
X95505000Y-68134947D01*
X80335000Y-68134947D01*
X80247189Y-67693490D01*
X80074941Y-67277647D01*
X79824875Y-66903397D01*
X79506603Y-66585125D01*
X79132353Y-66335059D01*
X78716510Y-66162811D01*
X78275053Y-66075000D01*
X77824947Y-66075000D01*
X77383490Y-66162811D01*
X76967647Y-66335059D01*
X76593397Y-66585125D01*
X76275125Y-66903397D01*
X76025059Y-67277647D01*
X75852811Y-67693490D01*
X75765000Y-68134947D01*
X64897000Y-68134947D01*
X64897000Y-65902408D01*
X84963000Y-65902408D01*
X84963000Y-66177592D01*
X85016686Y-66447490D01*
X85121995Y-66701727D01*
X85274880Y-66930535D01*
X85469465Y-67125120D01*
X85698273Y-67278005D01*
X85952510Y-67383314D01*
X86222408Y-67437000D01*
X86497592Y-67437000D01*
X86767490Y-67383314D01*
X87021727Y-67278005D01*
X87250535Y-67125120D01*
X87350090Y-67025565D01*
X88114040Y-67025565D01*
X88181020Y-67265656D01*
X88430048Y-67382756D01*
X88697135Y-67449023D01*
X88972017Y-67461910D01*
X89244133Y-67420922D01*
X89503023Y-67327636D01*
X89618980Y-67265656D01*
X89685960Y-67025565D01*
X88900000Y-66239605D01*
X88114040Y-67025565D01*
X87350090Y-67025565D01*
X87445120Y-66930535D01*
X87598005Y-66701727D01*
X87623838Y-66639361D01*
X87632364Y-66663023D01*
X87694344Y-66778980D01*
X87934435Y-66845960D01*
X88720395Y-66060000D01*
X89079605Y-66060000D01*
X89865565Y-66845960D01*
X90105656Y-66778980D01*
X90222756Y-66529952D01*
X90289023Y-66262865D01*
X90301910Y-65987983D01*
X90260922Y-65715867D01*
X90167636Y-65456977D01*
X90105656Y-65341020D01*
X89865565Y-65274040D01*
X89079605Y-66060000D01*
X88720395Y-66060000D01*
X87934435Y-65274040D01*
X87694344Y-65341020D01*
X87634920Y-65467393D01*
X87598005Y-65378273D01*
X87445120Y-65149465D01*
X87390090Y-65094435D01*
X88114040Y-65094435D01*
X88900000Y-65880395D01*
X89685960Y-65094435D01*
X89618980Y-64854344D01*
X89369952Y-64737244D01*
X89102865Y-64670977D01*
X88827983Y-64658090D01*
X88555867Y-64699078D01*
X88296977Y-64792364D01*
X88181020Y-64854344D01*
X88114040Y-65094435D01*
X87390090Y-65094435D01*
X87250535Y-64954880D01*
X87021727Y-64801995D01*
X86767490Y-64696686D01*
X86497592Y-64643000D01*
X86222408Y-64643000D01*
X85952510Y-64696686D01*
X85698273Y-64801995D01*
X85469465Y-64954880D01*
X85274880Y-65149465D01*
X85121995Y-65378273D01*
X85016686Y-65632510D01*
X84963000Y-65902408D01*
X64897000Y-65902408D01*
X64897000Y-62357000D01*
X111633000Y-62357000D01*
X111633000Y-84963000D01*
M02*
