G04 #@! TF.GenerationSoftware,KiCad,Pcbnew,5.1.2-f72e74a~84~ubuntu16.04.1*
G04 #@! TF.CreationDate,2019-07-14T00:58:29-04:00*
G04 #@! TF.ProjectId,usb-webcam-interface,7573622d-7765-4626-9361-6d2d696e7465,rev?*
G04 #@! TF.SameCoordinates,Original*
G04 #@! TF.FileFunction,Legend,Top*
G04 #@! TF.FilePolarity,Positive*
%FSLAX46Y46*%
G04 Gerber Fmt 4.6, Leading zero omitted, Abs format (unit mm)*
G04 Created by KiCad (PCBNEW 5.1.2-f72e74a~84~ubuntu16.04.1) date 2019-07-14 00:58:29*
%MOMM*%
%LPD*%
G04 APERTURE LIST*
%ADD10C,0.150000*%
%ADD11C,0.100000*%
G04 APERTURE END LIST*
D10*
X96909047Y-76652380D02*
X96909047Y-75652380D01*
X97147142Y-75652380D01*
X97290000Y-75700000D01*
X97385238Y-75795238D01*
X97432857Y-75890476D01*
X97480476Y-76080952D01*
X97480476Y-76223809D01*
X97432857Y-76414285D01*
X97385238Y-76509523D01*
X97290000Y-76604761D01*
X97147142Y-76652380D01*
X96909047Y-76652380D01*
X97909047Y-76271428D02*
X98670952Y-76271428D01*
X96909047Y-74362380D02*
X96909047Y-73362380D01*
X97147142Y-73362380D01*
X97290000Y-73410000D01*
X97385238Y-73505238D01*
X97432857Y-73600476D01*
X97480476Y-73790952D01*
X97480476Y-73933809D01*
X97432857Y-74124285D01*
X97385238Y-74219523D01*
X97290000Y-74314761D01*
X97147142Y-74362380D01*
X96909047Y-74362380D01*
X97909047Y-73981428D02*
X98670952Y-73981428D01*
X98290000Y-74362380D02*
X98290000Y-73600476D01*
X97498095Y-71120000D02*
X97402857Y-71072380D01*
X97260000Y-71072380D01*
X97117142Y-71120000D01*
X97021904Y-71215238D01*
X96974285Y-71310476D01*
X96926666Y-71500952D01*
X96926666Y-71643809D01*
X96974285Y-71834285D01*
X97021904Y-71929523D01*
X97117142Y-72024761D01*
X97260000Y-72072380D01*
X97355238Y-72072380D01*
X97498095Y-72024761D01*
X97545714Y-71977142D01*
X97545714Y-71643809D01*
X97355238Y-71643809D01*
X97974285Y-72072380D02*
X97974285Y-71072380D01*
X98545714Y-72072380D01*
X98545714Y-71072380D01*
X99021904Y-72072380D02*
X99021904Y-71072380D01*
X99260000Y-71072380D01*
X99402857Y-71120000D01*
X99498095Y-71215238D01*
X99545714Y-71310476D01*
X99593333Y-71500952D01*
X99593333Y-71643809D01*
X99545714Y-71834285D01*
X99498095Y-71929523D01*
X99402857Y-72024761D01*
X99260000Y-72072380D01*
X99021904Y-72072380D01*
X100719523Y-62952380D02*
X100719523Y-63666666D01*
X100671904Y-63809523D01*
X100576666Y-63904761D01*
X100433809Y-63952380D01*
X100338571Y-63952380D01*
X101624285Y-63285714D02*
X101624285Y-63952380D01*
X101195714Y-63285714D02*
X101195714Y-63809523D01*
X101243333Y-63904761D01*
X101338571Y-63952380D01*
X101481428Y-63952380D01*
X101576666Y-63904761D01*
X101624285Y-63857142D01*
X102052857Y-63904761D02*
X102148095Y-63952380D01*
X102338571Y-63952380D01*
X102433809Y-63904761D01*
X102481428Y-63809523D01*
X102481428Y-63761904D01*
X102433809Y-63666666D01*
X102338571Y-63619047D01*
X102195714Y-63619047D01*
X102100476Y-63571428D01*
X102052857Y-63476190D01*
X102052857Y-63428571D01*
X102100476Y-63333333D01*
X102195714Y-63285714D01*
X102338571Y-63285714D01*
X102433809Y-63333333D01*
X102767142Y-63285714D02*
X103148095Y-63285714D01*
X102910000Y-62952380D02*
X102910000Y-63809523D01*
X102957619Y-63904761D01*
X103052857Y-63952380D01*
X103148095Y-63952380D01*
X103481428Y-63952380D02*
X103481428Y-63285714D01*
X103481428Y-62952380D02*
X103433809Y-63000000D01*
X103481428Y-63047619D01*
X103529047Y-63000000D01*
X103481428Y-62952380D01*
X103481428Y-63047619D01*
X103957619Y-63285714D02*
X103957619Y-63952380D01*
X103957619Y-63380952D02*
X104005238Y-63333333D01*
X104100476Y-63285714D01*
X104243333Y-63285714D01*
X104338571Y-63333333D01*
X104386190Y-63428571D01*
X104386190Y-63952380D01*
X105624285Y-63952380D02*
X105624285Y-62952380D01*
X106195714Y-63952380D02*
X105767142Y-63380952D01*
X106195714Y-62952380D02*
X105624285Y-63523809D01*
X106767142Y-63952380D02*
X106671904Y-63904761D01*
X106624285Y-63809523D01*
X106624285Y-62952380D01*
X107529047Y-63904761D02*
X107433809Y-63952380D01*
X107243333Y-63952380D01*
X107148095Y-63904761D01*
X107100476Y-63809523D01*
X107100476Y-63428571D01*
X107148095Y-63333333D01*
X107243333Y-63285714D01*
X107433809Y-63285714D01*
X107529047Y-63333333D01*
X107576666Y-63428571D01*
X107576666Y-63523809D01*
X107100476Y-63619047D01*
X108005238Y-63952380D02*
X108005238Y-63285714D01*
X108005238Y-62952380D02*
X107957619Y-63000000D01*
X108005238Y-63047619D01*
X108052857Y-63000000D01*
X108005238Y-62952380D01*
X108005238Y-63047619D01*
X108481428Y-63952380D02*
X108481428Y-62952380D01*
X108481428Y-63333333D02*
X108576666Y-63285714D01*
X108767142Y-63285714D01*
X108862380Y-63333333D01*
X108910000Y-63380952D01*
X108957619Y-63476190D01*
X108957619Y-63761904D01*
X108910000Y-63857142D01*
X108862380Y-63904761D01*
X108767142Y-63952380D01*
X108576666Y-63952380D01*
X108481428Y-63904761D01*
X109767142Y-63904761D02*
X109671904Y-63952380D01*
X109481428Y-63952380D01*
X109386190Y-63904761D01*
X109338571Y-63809523D01*
X109338571Y-63428571D01*
X109386190Y-63333333D01*
X109481428Y-63285714D01*
X109671904Y-63285714D01*
X109767142Y-63333333D01*
X109814761Y-63428571D01*
X109814761Y-63523809D01*
X109338571Y-63619047D01*
X110243333Y-63952380D02*
X110243333Y-63285714D01*
X110243333Y-63476190D02*
X110290952Y-63380952D01*
X110338571Y-63333333D01*
X110433809Y-63285714D01*
X110529047Y-63285714D01*
D11*
X80985000Y-81605000D02*
X80260000Y-81605000D01*
X80985000Y-80655000D02*
X80985000Y-81605000D01*
X80985000Y-68255000D02*
X80185000Y-68255000D01*
X80985000Y-69280000D02*
X80985000Y-68255000D01*
X67655000Y-81605000D02*
X67655000Y-80905000D01*
X68305000Y-81605000D02*
X67655000Y-81605000D01*
X67655000Y-68255000D02*
X68330000Y-68255000D01*
X67655000Y-69230000D02*
X67655000Y-68255000D01*
X94855000Y-68255000D02*
X95580000Y-68255000D01*
X94855000Y-69205000D02*
X94855000Y-68255000D01*
X94855000Y-81605000D02*
X95655000Y-81605000D01*
X94855000Y-80580000D02*
X94855000Y-81605000D01*
X108185000Y-68255000D02*
X108185000Y-68955000D01*
X107535000Y-68255000D02*
X108185000Y-68255000D01*
X108185000Y-81605000D02*
X107510000Y-81605000D01*
X108185000Y-80630000D02*
X108185000Y-81605000D01*
X90260000Y-64640000D02*
X89760000Y-64640000D01*
X90260000Y-64640000D02*
X90260000Y-65140000D01*
X84960000Y-64640000D02*
X85460000Y-64640000D01*
X84960000Y-64640000D02*
X84960000Y-65140000D01*
X84960000Y-67440000D02*
X85460000Y-67440000D01*
X84960000Y-67440000D02*
X84960000Y-66940000D01*
X90260000Y-67440000D02*
X89760000Y-67440000D01*
X90260000Y-67440000D02*
X90260000Y-66940000D01*
D10*
X82427380Y-79069285D02*
X83236904Y-79069285D01*
X83332142Y-79021666D01*
X83379761Y-78974047D01*
X83427380Y-78878809D01*
X83427380Y-78688333D01*
X83379761Y-78593095D01*
X83332142Y-78545476D01*
X83236904Y-78497857D01*
X82427380Y-78497857D01*
X83379761Y-78069285D02*
X83427380Y-77926428D01*
X83427380Y-77688333D01*
X83379761Y-77593095D01*
X83332142Y-77545476D01*
X83236904Y-77497857D01*
X83141666Y-77497857D01*
X83046428Y-77545476D01*
X82998809Y-77593095D01*
X82951190Y-77688333D01*
X82903571Y-77878809D01*
X82855952Y-77974047D01*
X82808333Y-78021666D01*
X82713095Y-78069285D01*
X82617857Y-78069285D01*
X82522619Y-78021666D01*
X82475000Y-77974047D01*
X82427380Y-77878809D01*
X82427380Y-77640714D01*
X82475000Y-77497857D01*
X82903571Y-76735952D02*
X82951190Y-76593095D01*
X82998809Y-76545476D01*
X83094047Y-76497857D01*
X83236904Y-76497857D01*
X83332142Y-76545476D01*
X83379761Y-76593095D01*
X83427380Y-76688333D01*
X83427380Y-77069285D01*
X82427380Y-77069285D01*
X82427380Y-76735952D01*
X82475000Y-76640714D01*
X82522619Y-76593095D01*
X82617857Y-76545476D01*
X82713095Y-76545476D01*
X82808333Y-76593095D01*
X82855952Y-76640714D01*
X82903571Y-76735952D01*
X82903571Y-77069285D01*
X83522619Y-76307380D02*
X83522619Y-75545476D01*
X83427380Y-75307380D02*
X82427380Y-75307380D01*
X82427380Y-75069285D01*
X82475000Y-74926428D01*
X82570238Y-74831190D01*
X82665476Y-74783571D01*
X82855952Y-74735952D01*
X82998809Y-74735952D01*
X83189285Y-74783571D01*
X83284523Y-74831190D01*
X83379761Y-74926428D01*
X83427380Y-75069285D01*
X83427380Y-75307380D01*
X82903571Y-74307380D02*
X82903571Y-73974047D01*
X83427380Y-73831190D02*
X83427380Y-74307380D01*
X82427380Y-74307380D01*
X82427380Y-73831190D01*
X82427380Y-73545476D02*
X83427380Y-73212142D01*
X82427380Y-72878809D01*
X83427380Y-72545476D02*
X82427380Y-72545476D01*
X83332142Y-71497857D02*
X83379761Y-71545476D01*
X83427380Y-71688333D01*
X83427380Y-71783571D01*
X83379761Y-71926428D01*
X83284523Y-72021666D01*
X83189285Y-72069285D01*
X82998809Y-72116904D01*
X82855952Y-72116904D01*
X82665476Y-72069285D01*
X82570238Y-72021666D01*
X82475000Y-71926428D01*
X82427380Y-71783571D01*
X82427380Y-71688333D01*
X82475000Y-71545476D01*
X82522619Y-71497857D01*
X82903571Y-71069285D02*
X82903571Y-70735952D01*
X83427380Y-70593095D02*
X83427380Y-71069285D01*
X82427380Y-71069285D01*
X82427380Y-70593095D01*
X92317380Y-80171666D02*
X93126904Y-80171666D01*
X93222142Y-80124047D01*
X93269761Y-80076428D01*
X93317380Y-79981190D01*
X93317380Y-79790714D01*
X93269761Y-79695476D01*
X93222142Y-79647857D01*
X93126904Y-79600238D01*
X92317380Y-79600238D01*
X93269761Y-79171666D02*
X93317380Y-79028809D01*
X93317380Y-78790714D01*
X93269761Y-78695476D01*
X93222142Y-78647857D01*
X93126904Y-78600238D01*
X93031666Y-78600238D01*
X92936428Y-78647857D01*
X92888809Y-78695476D01*
X92841190Y-78790714D01*
X92793571Y-78981190D01*
X92745952Y-79076428D01*
X92698333Y-79124047D01*
X92603095Y-79171666D01*
X92507857Y-79171666D01*
X92412619Y-79124047D01*
X92365000Y-79076428D01*
X92317380Y-78981190D01*
X92317380Y-78743095D01*
X92365000Y-78600238D01*
X92793571Y-77838333D02*
X92841190Y-77695476D01*
X92888809Y-77647857D01*
X92984047Y-77600238D01*
X93126904Y-77600238D01*
X93222142Y-77647857D01*
X93269761Y-77695476D01*
X93317380Y-77790714D01*
X93317380Y-78171666D01*
X92317380Y-78171666D01*
X92317380Y-77838333D01*
X92365000Y-77743095D01*
X92412619Y-77695476D01*
X92507857Y-77647857D01*
X92603095Y-77647857D01*
X92698333Y-77695476D01*
X92745952Y-77743095D01*
X92793571Y-77838333D01*
X92793571Y-78171666D01*
X93412619Y-77409761D02*
X93412619Y-76647857D01*
X93317380Y-75838333D02*
X92841190Y-76171666D01*
X93317380Y-76409761D02*
X92317380Y-76409761D01*
X92317380Y-76028809D01*
X92365000Y-75933571D01*
X92412619Y-75885952D01*
X92507857Y-75838333D01*
X92650714Y-75838333D01*
X92745952Y-75885952D01*
X92793571Y-75933571D01*
X92841190Y-76028809D01*
X92841190Y-76409761D01*
X92793571Y-75409761D02*
X92793571Y-75076428D01*
X93317380Y-74933571D02*
X93317380Y-75409761D01*
X92317380Y-75409761D01*
X92317380Y-74933571D01*
X93222142Y-73933571D02*
X93269761Y-73981190D01*
X93317380Y-74124047D01*
X93317380Y-74219285D01*
X93269761Y-74362142D01*
X93174523Y-74457380D01*
X93079285Y-74505000D01*
X92888809Y-74552619D01*
X92745952Y-74552619D01*
X92555476Y-74505000D01*
X92460238Y-74457380D01*
X92365000Y-74362142D01*
X92317380Y-74219285D01*
X92317380Y-74124047D01*
X92365000Y-73981190D01*
X92412619Y-73933571D01*
X92793571Y-73505000D02*
X92793571Y-73171666D01*
X93317380Y-73028809D02*
X93317380Y-73505000D01*
X92317380Y-73505000D01*
X92317380Y-73028809D01*
X93317380Y-72600238D02*
X92317380Y-72600238D01*
X92317380Y-72266904D02*
X93317380Y-71933571D01*
X92317380Y-71600238D01*
X92793571Y-71266904D02*
X92793571Y-70933571D01*
X93317380Y-70790714D02*
X93317380Y-71266904D01*
X92317380Y-71266904D01*
X92317380Y-70790714D01*
X93317380Y-69790714D02*
X92841190Y-70124047D01*
X93317380Y-70362142D02*
X92317380Y-70362142D01*
X92317380Y-69981190D01*
X92365000Y-69885952D01*
X92412619Y-69838333D01*
X92507857Y-69790714D01*
X92650714Y-69790714D01*
X92745952Y-69838333D01*
X92793571Y-69885952D01*
X92841190Y-69981190D01*
X92841190Y-70362142D01*
X83301428Y-63802380D02*
X83301428Y-62802380D01*
X83682380Y-62802380D01*
X83777619Y-62850000D01*
X83825238Y-62897619D01*
X83872857Y-62992857D01*
X83872857Y-63135714D01*
X83825238Y-63230952D01*
X83777619Y-63278571D01*
X83682380Y-63326190D01*
X83301428Y-63326190D01*
X84491904Y-62802380D02*
X84682380Y-62802380D01*
X84777619Y-62850000D01*
X84872857Y-62945238D01*
X84920476Y-63135714D01*
X84920476Y-63469047D01*
X84872857Y-63659523D01*
X84777619Y-63754761D01*
X84682380Y-63802380D01*
X84491904Y-63802380D01*
X84396666Y-63754761D01*
X84301428Y-63659523D01*
X84253809Y-63469047D01*
X84253809Y-63135714D01*
X84301428Y-62945238D01*
X84396666Y-62850000D01*
X84491904Y-62802380D01*
X85253809Y-62802380D02*
X85491904Y-63802380D01*
X85682380Y-63088095D01*
X85872857Y-63802380D01*
X86110952Y-62802380D01*
X86491904Y-63278571D02*
X86825238Y-63278571D01*
X86968095Y-63802380D02*
X86491904Y-63802380D01*
X86491904Y-62802380D01*
X86968095Y-62802380D01*
X87968095Y-63802380D02*
X87634761Y-63326190D01*
X87396666Y-63802380D02*
X87396666Y-62802380D01*
X87777619Y-62802380D01*
X87872857Y-62850000D01*
X87920476Y-62897619D01*
X87968095Y-62992857D01*
X87968095Y-63135714D01*
X87920476Y-63230952D01*
X87872857Y-63278571D01*
X87777619Y-63326190D01*
X87396666Y-63326190D01*
X88158571Y-63897619D02*
X88920476Y-63897619D01*
X89158571Y-63802380D02*
X89158571Y-62802380D01*
X89539523Y-62802380D01*
X89634761Y-62850000D01*
X89682380Y-62897619D01*
X89730000Y-62992857D01*
X89730000Y-63135714D01*
X89682380Y-63230952D01*
X89634761Y-63278571D01*
X89539523Y-63326190D01*
X89158571Y-63326190D01*
X90158571Y-63802380D02*
X90158571Y-62802380D01*
X90634761Y-63802380D02*
X90634761Y-62802380D01*
X91206190Y-63802380D01*
X91206190Y-62802380D01*
X91634761Y-63754761D02*
X91777619Y-63802380D01*
X92015714Y-63802380D01*
X92110952Y-63754761D01*
X92158571Y-63707142D01*
X92206190Y-63611904D01*
X92206190Y-63516666D01*
X92158571Y-63421428D01*
X92110952Y-63373809D01*
X92015714Y-63326190D01*
X91825238Y-63278571D01*
X91730000Y-63230952D01*
X91682380Y-63183333D01*
X91634761Y-63088095D01*
X91634761Y-62992857D01*
X91682380Y-62897619D01*
X91730000Y-62850000D01*
X91825238Y-62802380D01*
X92063333Y-62802380D01*
X92206190Y-62850000D01*
M02*
